<?xml version="1.0" encoding="UTF-8" standalone="no"?>
<!-- Created with Inkscape (http://www.inkscape.org/) -->

<svg
   xmlns:dc="http://purl.org/dc/elements/1.1/"
   xmlns:cc="http://creativecommons.org/ns#"
   xmlns:rdf="http://www.w3.org/1999/02/22-rdf-syntax-ns#"
   xmlns:svg="http://www.w3.org/2000/svg"
   xmlns="http://www.w3.org/2000/svg"
   xmlns:sodipodi="http://sodipodi.sourceforge.net/DTD/sodipodi-0.dtd"
   xmlns:inkscape="http://www.inkscape.org/namespaces/inkscape"
   width="323"
   height="200"
   viewBox="0 0 323 200"
   id="svg2"
   version="1.1"
   inkscape:version="0.91 r13725"
   sodipodi:docname="via_logo_as_path.svg">
  <title
     id="title4167">Logo of VGG Image Annotator (via)</title>
  <defs
     id="defs4" />
  <sodipodi:namedview
     id="base"
     pagecolor="#ffffff"
     bordercolor="#666666"
     borderopacity="1.0"
     inkscape:pageopacity="0.0"
     inkscape:pageshadow="2"
     inkscape:zoom="1.4142136"
     inkscape:cx="248.47272"
     inkscape:cy="62.994533"
     inkscape:document-units="px"
     inkscape:current-layer="layer1"
     showgrid="false"
     inkscape:window-width="1863"
     inkscape:window-height="1056"
     inkscape:window-x="57"
     inkscape:window-y="24"
     inkscape:window-maximized="1"
     units="px" />
  <metadata
     id="metadata7">
    <rdf:RDF>
      <cc:Work
         rdf:about="">
        <dc:format>image/svg+xml</dc:format>
        <dc:type
           rdf:resource="http://purl.org/dc/dcmitype/StillImage" />
        <dc:title>Logo of VGG Image Annotator (via)</dc:title>
        <dc:creator>
          <cc:Agent>
            <dc:title>Abhishek Dutta</dc:title>
          </cc:Agent>
        </dc:creator>
        <dc:date>Sep. 03, 2016</dc:date>
      </cc:Work>
    </rdf:RDF>
  </metadata>
  <g
     inkscape:label="Layer 1"
     inkscape:groupmode="layer"
     id="layer1"
     transform="translate(0,-852.36216)">
    <g
       transform="translate(-160.28571,718.57143)"
       style="font-style:normal;font-weight:normal;font-size:40px;line-height:125%;font-family:sans-serif;letter-spacing:0px;word-spacing:0px;fill:#000000;fill-opacity:1;stroke:none;stroke-width:1px;stroke-linecap:butt;stroke-linejoin:miter;stroke-opacity:1"
       id="flowRoot4136">
      <path
         d="m 228.60742,211.24779 c 0,-2.875 -2.75,-2.875 -3.625,-2.875 -1.125,0 -4.75,0 -6.625,4.5 l -20.75,50.875 -20.625,-50.625 c -0.75,-1.75 -2,-4.75 -6.75,-4.75 -1,0 -3.75,0 -3.75,2.875 0,0.875 0.25,1.625 0.625,2.375 l 22.75,55.5 c 2,4.75 4.75,4.75 7.75,4.75 2.375,0 5.75,0 7.625,-4.5 l 22.75,-55.75 c 0.375,-0.75 0.625,-1.5 0.625,-2.375 z"
         style="font-style:normal;font-variant:normal;font-weight:normal;font-stretch:normal;font-size:125px;font-family:'Latin Modern Sans Quotation';-inkscape-font-specification:'Latin Modern Sans Quotation';letter-spacing:70px"
         id="path4229" />
      <path
         d="m 324.5625,267.99779 0,-54.125 c 0,-2.5 0,-5.5 -4.875,-5.5 -4.875,0 -4.875,3 -4.875,5.5 l 0,54.125 c 0,2.5 0,5.5 4.875,5.5 4.875,0 4.875,-3 4.875,-5.5 z m 1.375,-75.375 c 0,-5.375 -2.875,-5.375 -5.5,-5.375 l -1.25,0 c -2.625,0 -5.5,0 -5.5,5.375 0,5 2.125,5.5 5.625,5.5 l 1,0 c 3.5,0 5.625,-0.5 5.625,-5.5 z"
         style="font-style:normal;font-variant:normal;font-weight:normal;font-stretch:normal;font-size:125px;font-family:'Latin Modern Sans Quotation';-inkscape-font-specification:'Latin Modern Sans Quotation';letter-spacing:70px"
         id="path4231" />
      <path
         d="m 469.60547,267.99779 0,-38.875 c 0,-12.25 -9.75,-22.625 -24.75,-22.625 -6,0 -13.375,0.75 -21.625,4.375 -0.25,0.25 -2.5,1.25 -3.25,1.75 -0.875,0.5 -0.875,1.75 -0.875,1.75 0,1.375 0,6.625 2.25,6.625 0.375,0 0.625,0 2.375,-1.125 7.625,-4.75 14.125,-6 20.875,-6 10.25,0 15,7.25 15,15.75 l 0,5 c -32.375,0.75 -43.25,11.125 -43.25,21.625 0,9 6.875,18.5 18.625,18.5 8.25,0 19.125,-2.75 24.875,-10.25 l 0,3.5 c 0,2.5 0,5.5 4.875,5.5 4.875,0 4.875,-3 4.875,-5.5 z m -10,-14.75 c 0,13.625 -17.5,13.625 -18.625,13.625 -8,0 -15,-4.25 -15,-10.75 0,-6.875 6.5,-11 12.25,-13.125 7.875,-2.875 15.375,-3.25 21.375,-3.5 l 0,13.75 z"
         style="font-style:normal;font-variant:normal;font-weight:normal;font-stretch:normal;font-size:125px;font-family:'Latin Modern Sans Quotation';-inkscape-font-specification:'Latin Modern Sans Quotation';letter-spacing:70px"
         id="path4233" />
    </g>
    <rect
       style="fill:none;fill-opacity:1;stroke:#636af3;stroke-width:1.7114954;stroke-linecap:round;stroke-linejoin:round;stroke-miterlimit:4;stroke-dasharray:none;stroke-dashoffset:0;stroke-opacity:1"
       id="rect4169"
       width="75.378609"
       height="78.6819"
       x="4.7188163"
       y="918.63214" />
    <rect
       style="fill:none;fill-opacity:1;stroke:#636af3;stroke-width:1.6323061;stroke-linecap:round;stroke-linejoin:round;stroke-miterlimit:4;stroke-dasharray:none;stroke-dashoffset:0;stroke-opacity:1"
       id="rect4169-8"
       width="51.416161"
       height="104.92403"
       x="133.7341"
       y="894.01093" />
    <rect
       style="fill:none;fill-opacity:1;stroke:#636af3;stroke-width:1.8765254;stroke-linecap:round;stroke-linejoin:round;stroke-miterlimit:4;stroke-dasharray:none;stroke-dashoffset:0;stroke-opacity:1"
       id="rect4169-0"
       width="82.284637"
       height="86.648598"
       x="238.37628"
       y="919.33582" />
    <g
       transform="translate(64.51829,819.36037)"
       style="font-style:normal;font-weight:normal;font-size:40px;line-height:125%;font-family:sans-serif;letter-spacing:0px;word-spacing:0px;fill:#000000;fill-opacity:1;stroke:none;stroke-width:1px;stroke-linecap:butt;stroke-linejoin:miter;stroke-opacity:1"
       id="flowRoot4201">
      <path
         d="m -40.315234,186.87995 q 0.035,-0.4375 0.3675,-0.665 0.3325,-0.2275 0.5775,-0.21 0.315,0.035 0.5075,0.28 0.21,0.245 0.3325,0.525 0.1225,0.28 0.21,0.3325 0.4025,0 0.4025,0.35 0,0.175 0.2275,0.7175 0.245,0.5425 0.7875,1.82 0.5425,1.26 1.0675,2.695 1.19,3.185 1.6975,4.0075 0.35,-0.6125 1.05,-2.24 0.7,-1.645 0.9975,-2.6075 0.49,-1.4875 1.295,-3.395 0.805,-1.9075 1.33,-2.2225 l 0.07,-0.0175 q 0.07,-0.0175 0.14,-0.0175 0.28,0 0.595,0.1575 0.3325,0.14 0.3325,0.49 0,0.4025 -0.2975,1.26 -0.28,0.84 -0.875,2.3625 -0.5775,1.5225 -0.98,2.7125 -0.4375,1.3125 -1.7325,3.85 -0.6825,1.3125 -1.0675,1.82 -0.385,0.5075 -0.84,0.5075 -0.735,0 -1.155,-0.5425 -0.4025,-0.56 -1.2075,-2.5725 l -1.9425,-4.83 q -0.945,-2.3625 -0.945,-2.695 -0.0175,0.0175 -0.0175,0.035 -0.0175,-0.035 -0.4725,-0.735 -0.455,-0.7 -0.455,-1.1725 z"
         style="font-style:normal;font-variant:normal;font-weight:bold;font-stretch:normal;font-size:17.5px;font-family:Purisa;-inkscape-font-specification:'Purisa Bold'"
         id="path4236" />
      <path
         d="m -19.106602,193.31995 q -0.035,0 -0.3325,0.1925 -0.2975,0.175 -0.8925,0.175 -0.2975,0 -0.6125,-0.0525 -0.315,-0.0525 -0.6475,-0.1575 -0.315,-0.1225 -0.525,-0.35 -0.21,-0.245 -0.21,-0.56 0.035,-0.4025 0.2975,-0.595 0.2625,-0.1925 0.63,-0.2975 0.3675,-0.105 0.4725,-0.21 0.245,-0.245 0.8575,-0.245 0.7,0 1.7325,0.21 1.0325,0.1925 1.4,0.49 0.6125,0.5075 0.875,2.275 0.2625,1.75 0.2625,3.78 0,0.735 -0.105,1.12 -0.105,0.3675 -0.49,0.4725 -0.1575,0.0525 -0.245,0.0525 -0.3325,0 -0.5425,-0.1575 -0.1925,-0.175 -0.2975,-0.5775 -0.0875,-0.42 -0.105,-0.7875 -0.0175,-0.385 -0.0175,-1.1025 l 0,-1.1725 -0.14,0.2275 q -1.085,1.645 -2.485,2.59 -1.4,0.945 -2.7475,0.945 -0.735,0 -1.47,-0.3675 -0.525,-0.28 -0.77,-0.6475 -0.245,-0.3675 -0.49,-1.26 -0.2625,-0.9275 -0.2625,-1.7325 0,-0.56 0.105,-1.4175 0.175,-1.435 0.5075,-2.2575 0.3325,-0.84 1.3475,-2.24 0.7175,-0.98 1.5575,-1.68 0.84,-0.7175 1.435,-0.9975 0.6125,-0.28 1.1025,-0.5075 0.49,-0.2275 0.595,-0.3675 0.315,-0.42 1.12,-0.42 0.735,0 1.4,0.3675 0.6825,0.35 0.6825,0.8225 0,0.35 -0.2625,0.8225 -0.245,0.4725 -0.6125,0.4725 -0.2625,0 -0.385,-0.21 -0.1225,-0.21 -0.175,-0.4025 -0.0525,-0.21 -0.14,-0.21 -0.3325,0 -0.91,0.1925 -0.56,0.1925 -1.3825,0.6475 -0.805,0.4375 -1.75,1.435 -0.9275,0.98 -1.6975,2.345 -0.56,0.98 -0.6825,1.47 -0.105,0.49 -0.105,1.645 0,1.6625 0.245,2.205 0.2625,0.525 1.015,0.525 1.785,0 2.905,-1.3475 0.6125,-0.735 0.9975,-1.505 0.4025,-0.7875 0.4025,-1.1725 0,-0.175 -0.1575,-0.315 -0.14,-0.1575 -0.2975,-0.1575 z"
         style="font-style:normal;font-variant:normal;font-weight:bold;font-stretch:normal;font-size:17.5px;font-family:Purisa;-inkscape-font-specification:'Purisa Bold'"
         id="path4238" />
      <path
         d="m -5.9474219,193.31995 q -0.035,0 -0.3325,0.1925 -0.2975,0.175 -0.8925,0.175 -0.2975,0 -0.6125,-0.0525 -0.315,-0.0525 -0.6475,-0.1575 -0.315,-0.1225 -0.525,-0.35 -0.21,-0.245 -0.21,-0.56 0.035,-0.4025 0.2975,-0.595 0.2625,-0.1925 0.63,-0.2975 0.3675,-0.105 0.4725,-0.21 0.245,-0.245 0.8575,-0.245 0.7,0 1.7325,0.21 1.0325,0.1925 1.4,0.49 0.6125,0.5075 0.875,2.275 0.2625,1.75 0.2625,3.78 0,0.735 -0.105,1.12 -0.105,0.3675 -0.49,0.4725 -0.1575,0.0525 -0.245,0.0525 -0.3325,0 -0.5425,-0.1575 -0.1925,-0.175 -0.2975,-0.5775 -0.0875,-0.42 -0.105,-0.7875 -0.0175,-0.385 -0.0175,-1.1025 l 0,-1.1725 -0.14,0.2275 q -1.085,1.645 -2.485,2.59 -1.4,0.945 -2.7475,0.945 -0.7350001,0 -1.4700001,-0.3675 -0.525,-0.28 -0.77,-0.6475 -0.245,-0.3675 -0.49,-1.26 -0.2625,-0.9275 -0.2625,-1.7325 0,-0.56 0.105,-1.4175 0.175,-1.435 0.5075,-2.2575 0.3325,-0.84 1.3475,-2.24 0.7175,-0.98 1.5575001,-1.68 0.84,-0.7175 1.435,-0.9975 0.6125,-0.28 1.1025,-0.5075 0.49,-0.2275 0.595,-0.3675 0.315,-0.42 1.12,-0.42 0.735,0 1.4,0.3675 0.6825,0.35 0.6825,0.8225 0,0.35 -0.2625,0.8225 -0.245,0.4725 -0.6125,0.4725 -0.2625,0 -0.385,-0.21 -0.1225,-0.21 -0.175,-0.4025 -0.0525,-0.21 -0.14,-0.21 -0.3325,0 -0.91,0.1925 -0.56,0.1925 -1.3825,0.6475 -0.805,0.4375 -1.75,1.435 -0.9275,0.98 -1.6975001,2.345 -0.56,0.98 -0.6825,1.47 -0.105,0.49 -0.105,1.645 0,1.6625 0.245,2.205 0.2625,0.525 1.0150001,0.525 1.785,0 2.905,-1.3475 0.6125,-0.735 0.9975,-1.505 0.4025,-0.7875 0.4025,-1.1725 0,-0.175 -0.1575,-0.315 -0.14,-0.1575 -0.2975,-0.1575 z"
         style="font-style:normal;font-variant:normal;font-weight:bold;font-stretch:normal;font-size:17.5px;font-family:Purisa;-inkscape-font-specification:'Purisa Bold'"
         id="path4240" />
    </g>
    <g
       transform="translate(168.62685,822.98837)"
       style="font-style:normal;font-weight:normal;font-size:40px;line-height:125%;font-family:sans-serif;letter-spacing:0px;word-spacing:0px;fill:#000000;fill-opacity:1;stroke:none;stroke-width:1px;stroke-linecap:butt;stroke-linejoin:miter;stroke-opacity:1"
       id="flowRoot4201-6">
      <path
         d="m -39.282734,189.50495 q 0.2975,-0.21 0.5775,-0.21 0.28,0 0.4725,0.2275 0.28,0.525 0.455,3.045 0.1925,2.52 0.1925,4.7075 0,1.575 -0.105,1.785 -0.35,0.28 -0.7525,0.28 -0.6125,0 -0.7525,-0.3675 -0.0875,-0.28 -0.28,-3.64 -0.175,-3.3775 -0.175,-4.515 0,-1.0675 0.3675,-1.3125 z m -0.1925,-4.095 q 0.035,-0.3325 0.28,-0.5425 0.2625,-0.21 0.5075,-0.21 0.245,0 0.63,0.2275 0.385,0.2275 0.385,0.6125 0,0.42 -0.21,0.7525 -0.21,0.3325 -0.56,0.3325 -0.3675,0 -0.7,-0.3325 -0.3325,-0.35 -0.3325,-0.84 z"
         style="font-style:normal;font-variant:normal;font-weight:bold;font-stretch:normal;font-size:17.5px;font-family:Purisa;-inkscape-font-specification:'Purisa Bold'"
         id="path4243" />
      <path
         d="m -21.874883,195.66495 q 0,1.435 -0.035,2.2225 -0.0175,0.77 -0.1225,1.19 -0.0875,0.42 -0.21,0.525 -0.1225,0.105 -0.3675,0.105 -0.2975,0 -0.4025,-0.315 -0.07,-0.245 -0.0875,-2.415 0,-2.1875 -0.1575,-4.095 -0.14,-1.925 -0.56,-1.925 -0.2975,0 -0.8925,0.9625 -0.595,0.9625 -1.2075,2.905 -0.595,1.925 -0.7175,4.06 -0.07,0.9625 -0.6125,0.9625 -0.385,0 -0.49,-0.3675 -0.0875,-0.3675 -0.14,-1.5225 -0.0175,-0.2975 -0.0175,-0.4725 -0.1225,-2.6775 -0.3675,-3.7275 -0.245,-1.05 -0.91,-1.89 -0.3675,-0.525 -0.525,-0.525 -0.28,0.07 -1.47,2.625 -0.3325,0.7 -0.3325,1.3475 0,0.42 -0.175,0.875 -0.1575,0.455 -0.21,2.24 0,0.175 -0.0175,0.5075 0,0.3325 0,0.5075 0,0.1575 -0.035,0.42 -0.0175,0.2625 -0.07,0.385 -0.035,0.1225 -0.105,0.2625 -0.07,0.14 -0.1925,0.1925 -0.105,0.07 -0.2625,0.07 -0.4725,0 -0.595,-0.8225 -0.1225,-0.805 -0.1225,-3.43 0,-1.68 -0.14,-3.535 -0.1225,-1.8725 -0.1225,-2.1525 0,-1.1725 0.5075,-1.1725 0.175,0 0.2975,0.1925 0.14,0.1925 0.2275,0.5425 0.0875,0.3325 0.14,0.665 0.07,0.3325 0.14,0.77 0.07,0.4375 0.1225,0.6475 0.105,-0.2625 0.1575,-0.385 0.07,-0.1225 0.1225,-0.1575 0.0525,-0.0525 0.1925,-0.2625 0.14,-0.2275 0.35,-0.6125 0.4375,-0.805 0.7,-0.9975 0.2625,-0.21 0.91,-0.21 0.7,0 1.505,0.84 0.455,0.5075 0.63,0.9625 0.175,0.4375 0.35,1.5225 l 0.1225,0.6475 q 0.49,-1.5575 1.4525,-2.765 0.98,-1.2075 1.9425,-1.2075 0.595,0 1.015,0.5425 0.4375,0.5425 0.6125,1.3125 0.175,0.8225 0.175,3.955 z"
         style="font-style:normal;font-variant:normal;font-weight:bold;font-stretch:normal;font-size:17.5px;font-family:Purisa;-inkscape-font-specification:'Purisa Bold'"
         id="path4245" />
      <path
         d="m -13.56457,197.46745 q 0,-0.21 0.5775,-0.7 0.5775,-0.49 0.595,-0.63 0,-0.07 -0.105,-0.1925 -0.105,-0.1225 -0.56,-0.28 -0.4375,-0.1575 -1.155,-0.1575 -0.77,0 -1.3475,0.2275 -0.56,0.2275 -0.84,0.56 -0.28,0.3325 -0.4025,0.6125 -0.1225,0.28 -0.1225,0.49 0,0.35 0.0525,0.455 0.07,0.0875 0.3325,0.21 0.4025,0.1575 0.6475,0.1575 0.385,0 0.9625,-0.1925 0.5775,-0.1925 0.98,-0.3675 l 0.385,-0.1925 z m 3.15,1.12 q -0.035,0.4025 -0.315,0.7 -0.2625,0.28 -0.4375,0.28 -0.105,0 -0.21,-0.035 -0.0875,-0.035 -0.175,-0.1225 -0.07,-0.105 -0.14,-0.175 -0.0525,-0.0875 -0.105,-0.245 -0.035,-0.1575 -0.07,-0.245 -0.035,-0.105 -0.07,-0.2975 -0.035,-0.1925 -0.0525,-0.28 0,-0.0875 -0.035,-0.28 -0.035,-0.1925 -0.035,-0.245 -0.56,0.6475 -1.6625,1.26 -1.085,0.595 -1.855,0.595 -0.49,0 -1.1725,-0.1575 -0.6825,-0.1575 -0.9975,-0.385 -0.5425,-0.4025 -0.5425,-1.715 0,-0.77 0.4375,-1.33 0.4375,-0.56 1.575,-1.12 1.2775,-0.6475 2.3975,-0.6475 0.49,0 0.805,0.1225 0.3325,0.1225 0.5075,0.2975 0.1925,0.1575 0.21,0.1575 0.28,0.0525 0.49,0.2275 0,-1.155 -0.105,-1.925 -0.0875,-0.7875 -0.2625,-1.155 -0.175,-0.3675 -0.35,-0.5075 -0.175,-0.14 -0.42,-0.14 -0.84,0 -1.82,0.3325 -0.9625,0.3325 -1.75,0.6825 -0.77,0.3325 -1.12,0.3325 -0.4375,0 -0.4375,-0.4025 0,-0.245 0.105,-0.4375 0.105,-0.21 0.245,-0.35 0.1575,-0.14 0.4725,-0.28 0.3325,-0.1575 0.595,-0.245 0.28,-0.105 0.805,-0.28 0.525,-0.1925 0.91,-0.3325 1.05,-0.3675 1.8375,-0.3675 1.4175,0 2.1175,1.33 0.315,0.595 0.3675,1.085 0.07,0.49 0.105,2.8525 0.035,2.2225 0.1575,3.4475 z"
         style="font-style:normal;font-variant:normal;font-weight:bold;font-stretch:normal;font-size:17.5px;font-family:Purisa;-inkscape-font-specification:'Purisa Bold'"
         id="path4247" />
      <path
         d="m -6.5046875,195.06995 q 0,0.91 0.4725,1.6975 0.49,0.77 1.225,0.77 1.05,0 2.31,-0.9275 1.2775,-0.9275 2.065,-2.345 0.455,-0.8225 0.7525,-1.855 0.315,-1.0325 0.315,-1.5925 0,-0.175 -0.035,-0.245 -0.315,-0.1575 -1.2075,-0.1575 -0.7875,0 -1.4,0.1575 -1.54,0.42 -3.0275,1.9775 -1.47,1.5575 -1.47,2.52 z m 6.825,7.2625 q 0.6475,0 0.6475,-0.525 0,-1.3475 -0.0875,-2.2225 -0.0875,-0.8575 -0.2275,-1.47 -0.1225,-0.6125 -0.1575,-0.98 -0.0525,-0.8225 -0.1225,-1.2775 -0.49,0.6475 -1.54,1.435 -1.05,0.77 -1.785,1.0325 -0.8575,0.2975 -1.8725,0.2975 -0.63,0 -1.0325,-0.14 -0.385,-0.14 -0.9625,-0.6125 -0.5425,-0.455 -0.7875,-0.84 -0.2275,-0.4025 -0.35,-1.0325 -0.1225,-0.6475 -0.1225,-1.1025 0,-0.7 0.6475,-1.82 0.6475,-1.1375 1.1025,-1.6975 0.42,-0.525 1.5225,-1.155 1.1025,-0.6475 1.9425,-0.8925 0.8925,-0.28 2.03,-0.28 1.4175,0 2.3625,0.4725 0.9625,0.4725 0.9625,1.505 0,0.5425 -0.2625,1.295 -0.245,0.735 -0.245,1.26 0,0.315 0.035,0.91 0.0525,0.5775 0.1575,1.96 0.1225,1.365 0.21,2.73 l 0.2625,3.6225 -0.7,0.56 q -0.5425,0.455 -1.1375,0.455 -1.05,0 -2.52,-0.4725 -1.4525,-0.4725 -2.52,-1.1375 -1.05,-0.665 -1.05,-1.1375 0,-0.6125 0.5775,-1.3125 0.595,-0.7 1.0325,-0.7 0.665,0 0.665,0.49 0,0.21 -0.175,0.525 -0.175,0.315 -0.175,0.56 0,0.3675 0.595,0.6825 0.6125,0.315 1.0325,0.315 0.35,0 0.98,0.35 0.6475,0.35 1.0675,0.35 z"
         style="font-style:normal;font-variant:normal;font-weight:bold;font-stretch:normal;font-size:17.5px;font-family:Purisa;-inkscape-font-specification:'Purisa Bold'"
         id="path4249" />
      <path
         d="m 14.545352,195.26245 q 0.315,0 0.315,0.3675 0,0.4025 -0.5075,1.155 -0.5075,0.735 -1.015,1.19 -1.96,1.68 -4.0425004,1.68 -1.715,0 -3.0975,-1.3475 -1.3825,-1.3475 -1.3825,-3.71 0,-0.665 0.1925,-1.2775 0.3675,-1.085 1.645,-2.2575 1.2775,-1.19 2.45,-1.19 0.315,0 0.9275004,0.0525 0.945,0.07 1.33,0.1925 0.4025,0.105 0.91,0.4375 0.56,0.3675 1.015,1.05 0.455,0.665 0.455,1.1725 0,0.665 -0.5425,0.98 -0.5425,0.315 -1.8375,0.5775 -1.6975004,0.3325 -3.5000004,0.4375 l -1.5225,0.07 0,0.455 q 0,0.6475 0.28,1.1375 0.2975,0.49 0.945,1.0325 0.9275,0.77 1.89,0.77 0.7700004,0 1.6275004,-0.455 0.8575,-0.4725 1.4525,-1.0325 0.6125,-0.56 1.1725,-1.015 0.5775,-0.4725 0.84,-0.4725 z m -2.2575,-2.765 q 0,-0.14 -0.77,-0.7175 -0.56,-0.42 -0.805,-0.525 -0.2275,-0.105 -0.665,-0.105 -0.8750004,0 -1.2950004,0.14 -0.4025,0.1225 -0.8575,0.56 -1.365,1.33 -1.365,1.715 l -0.0175,-0.0175 q 0.07,0.0175 0.315,0.0175 1.6975,0 4.7075004,-0.595 0.7525,-0.14 0.7525,-0.4725 z"
         style="font-style:normal;font-variant:normal;font-weight:bold;font-stretch:normal;font-size:17.5px;font-family:Purisa;-inkscape-font-specification:'Purisa Bold'"
         id="path4251" />
    </g>
    <g
       transform="translate(261.24996,826.9949)"
       style="font-style:normal;font-weight:normal;font-size:40px;line-height:125%;font-family:sans-serif;letter-spacing:0px;word-spacing:0px;fill:#000000;fill-opacity:1;stroke:none;stroke-width:1px;stroke-linecap:butt;stroke-linejoin:miter;stroke-opacity:1"
       id="flowRoot4201-4">
      <path
         d="m -34.995234,197.46745 q 0,-0.21 0.5775,-0.7 0.5775,-0.49 0.595,-0.63 0,-0.07 -0.105,-0.1925 -0.105,-0.1225 -0.56,-0.28 -0.4375,-0.1575 -1.155,-0.1575 -0.77,0 -1.3475,0.2275 -0.56,0.2275 -0.84,0.56 -0.28,0.3325 -0.4025,0.6125 -0.1225,0.28 -0.1225,0.49 0,0.35 0.0525,0.455 0.07,0.0875 0.3325,0.21 0.4025,0.1575 0.6475,0.1575 0.385,0 0.9625,-0.1925 0.5775,-0.1925 0.98,-0.3675 l 0.385,-0.1925 z m 3.15,1.12 q -0.035,0.4025 -0.315,0.7 -0.2625,0.28 -0.4375,0.28 -0.105,0 -0.21,-0.035 -0.0875,-0.035 -0.175,-0.1225 -0.07,-0.105 -0.14,-0.175 -0.0525,-0.0875 -0.105,-0.245 -0.035,-0.1575 -0.07,-0.245 -0.035,-0.105 -0.07,-0.2975 -0.035,-0.1925 -0.0525,-0.28 0,-0.0875 -0.035,-0.28 -0.035,-0.1925 -0.035,-0.245 -0.56,0.6475 -1.6625,1.26 -1.085,0.595 -1.855,0.595 -0.49,0 -1.1725,-0.1575 -0.6825,-0.1575 -0.9975,-0.385 -0.5425,-0.4025 -0.5425,-1.715 0,-0.77 0.4375,-1.33 0.4375,-0.56 1.575,-1.12 1.2775,-0.6475 2.3975,-0.6475 0.49,0 0.805,0.1225 0.3325,0.1225 0.5075,0.2975 0.1925,0.1575 0.21,0.1575 0.28,0.0525 0.49,0.2275 0,-1.155 -0.105,-1.925 -0.0875,-0.7875 -0.2625,-1.155 -0.175,-0.3675 -0.35,-0.5075 -0.175,-0.14 -0.42,-0.14 -0.84,0 -1.82,0.3325 -0.9625,0.3325 -1.75,0.6825 -0.77,0.3325 -1.12,0.3325 -0.4375,0 -0.4375,-0.4025 0,-0.245 0.105,-0.4375 0.105,-0.21 0.245,-0.35 0.1575,-0.14 0.4725,-0.28 0.3325,-0.1575 0.595,-0.245 0.28,-0.105 0.805,-0.28 0.525,-0.1925 0.91,-0.3325 1.05,-0.3675 1.8375,-0.3675 1.4175,0 2.1175,1.33 0.315,0.595 0.3675,1.085 0.07,0.49 0.105,2.8525 0.035,2.2225 0.1575,3.4475 z"
         style="font-style:normal;font-variant:normal;font-weight:bold;font-stretch:normal;font-size:17.5px;font-family:Purisa;-inkscape-font-specification:'Purisa Bold'"
         id="path4254" />
      <path
         d="m -28.530352,190.32745 q 0,-0.91 0.5775,-0.91 0.385,0.0175 0.5075,0.4725 0.1225,0.455 0.35,2.555 0.0525,0.4725 0.0875,0.735 l 0.245,1.995 0.1925,-0.5775 q 0.3675,-1.1375 0.63,-1.6625 0.28,-0.525 1.015,-1.4875 1.4175,-1.8725 2.3975,-1.8725 0.6475,0 1.12,0.7175 0.56,0.7875 0.6825,1.575 0.14,0.7875 0.1925,3.605 0.035,1.785 0.035,2.17 0,1.155 -0.1575,1.575 -0.1575,0.4025 -0.6475,0.4025 -0.3325,0 -0.4375,-0.175 -0.105,-0.1925 -0.105,-0.7525 0,-0.2625 0.035,-1.085 0.035,-0.8225 0.035,-1.365 0,-1.4875 -0.1225,-2.7825 -0.1225,-1.295 -0.28,-1.6275 -0.07,-0.14 -0.175,-0.2625 -0.105,-0.14 -0.1925,-0.21 -0.07,-0.07 -0.105,-0.07 -0.28,0 -1.155,1.1725 -0.8575,1.1725 -1.4525,2.3975 -0.6125,1.295 -0.8225,1.89 -0.1925,0.595 -0.315,1.61 -0.1925,1.6275 -0.315,1.8025 -0.0875,0.105 -0.1925,0.105 -0.2625,-0.035 -0.56,-0.3675 -0.1575,-0.175 -0.245,-0.4375 -0.07,-0.28 -0.1225,-0.84 -0.0525,-0.5775 -0.0875,-1.225 -0.035,-0.665 -0.14,-1.9075 -0.105,-1.26 -0.2625,-2.6075 -0.21,-2.1 -0.21,-2.555 z"
         style="font-style:normal;font-variant:normal;font-weight:bold;font-stretch:normal;font-size:17.5px;font-family:Purisa;-inkscape-font-specification:'Purisa Bold'"
         id="path4256" />
      <path
         d="m -16.772539,190.32745 q 0,-0.91 0.5775,-0.91 0.385,0.0175 0.5075,0.4725 0.1225,0.455 0.35,2.555 0.0525,0.4725 0.0875,0.735 l 0.245,1.995 0.1925,-0.5775 q 0.3675,-1.1375 0.63,-1.6625 0.28,-0.525 1.015,-1.4875 1.4175,-1.8725 2.3975,-1.8725 0.6475,0 1.1199999,0.7175 0.56,0.7875 0.6825,1.575 0.14,0.7875 0.1925,3.605 0.035,1.785 0.035,2.17 0,1.155 -0.1575,1.575 -0.1575,0.4025 -0.6475,0.4025 -0.3325,0 -0.4375,-0.175 -0.1049999,-0.1925 -0.1049999,-0.7525 0,-0.2625 0.035,-1.085 0.035,-0.8225 0.035,-1.365 0,-1.4875 -0.1225,-2.7825 -0.1225,-1.295 -0.28,-1.6275 -0.07,-0.14 -0.175,-0.2625 -0.105,-0.14 -0.1925,-0.21 -0.07,-0.07 -0.105,-0.07 -0.28,0 -1.155,1.1725 -0.8575,1.1725 -1.4525,2.3975 -0.6125,1.295 -0.8225,1.89 -0.1925,0.595 -0.315,1.61 -0.1925,1.6275 -0.315,1.8025 -0.0875,0.105 -0.1925,0.105 -0.2625,-0.035 -0.56,-0.3675 -0.1575,-0.175 -0.245,-0.4375 -0.07,-0.28 -0.1225,-0.84 -0.0525,-0.5775 -0.0875,-1.225 -0.035,-0.665 -0.14,-1.9075 -0.105,-1.26 -0.2625,-2.6075 -0.21,-2.1 -0.21,-2.555 z"
         style="font-style:normal;font-variant:normal;font-weight:bold;font-stretch:normal;font-size:17.5px;font-family:Purisa;-inkscape-font-specification:'Purisa Bold'"
         id="path4258" />
      <path
         d="m -4.4372266,191.58745 q 1.47,-1.26 2.5025,-1.6625 1.05000004,-0.4025 2.62500004,-0.4025 2.43249996,0 3.04499996,1.365 0.35,0.77 0.35,1.9075 0,1.8025 -0.875,3.675 -0.8575,1.8725 -2.1875,2.625 -1.29499996,0.7175 -2.7475,0.7175 -2.135,0 -3.255,-1.26 -0.7875,-0.875 -1.0325,-1.4875 -0.2275,-0.63 -0.2275,-1.7325 0,-2.1875 1.8025,-3.745 z m 3.1675,6.7725 q 1.43500004,0 2.6425,-1.82 1.225,-1.8375 1.225,-4.165 0,-0.245 -0.0525,-0.385 -0.035,-0.14 -0.0875,-0.1925 -0.0525,-0.07 -0.1925,-0.175 -0.63,-0.455 -1.32999996,-0.455 -0.105,0 -0.2975,0.035 -0.175,0.0175 -0.5425,0.07 -0.35,0.035 -0.77,0.07 -0.57750004,0.0525 -0.94500004,0.2275 -0.35,0.1575 -0.91,0.63 -1.05,0.8925 -1.505,1.645 -0.4375,0.735 -0.4375,1.61 0,1.2775 0.8925,2.1 0.8925,0.805 2.31,0.805 z"
         style="font-style:normal;font-variant:normal;font-weight:bold;font-stretch:normal;font-size:17.5px;font-family:Purisa;-inkscape-font-specification:'Purisa Bold'"
         id="path4260" />
      <path
         d="m 9.4949609,189.90745 q -0.56,0.035 -1.54,0.21 -0.9625,0.1575 -1.295,0.1575 -0.7525,0 -0.7525,-0.595 0,-0.4725 0.665,-0.7175 0.665,-0.245 1.575,-0.385 0.9275,-0.14 1.19,-0.28 0.14,-0.14 0.14,-0.7525 0,-0.63 -0.1575,-1.645 -0.1575,-1.015 -0.1575,-1.8375 0,-0.56 0.2975,-0.8225 0.2975,-0.28 0.6475001,-0.28 0.385,0 0.5425,0.315 0.0875,0.2625 0.2975,2.2925 0.21,2.0125 0.2625,2.3275 0.14,-0.0175 0.9275,-0.14 0.805,-0.14 1.225,-0.14 0.595,0 0.84,0.1925 0.245,0.1925 0.245,0.42 0,0.3325 -0.455,0.56 -0.455,0.2275 -1.645,0.525 l -0.9975,0.1575 0.14,2.66 q 0.14,2.4675 0.49,4.62 0.35,2.1525 0.35,2.485 0,0.77 -0.805,0.77 -0.4725,0 -0.7,-0.175 -0.525,-0.4725 -0.525,-1.9775 0,-0.6125 -0.07,-1.2425 -0.07,-0.6475 -0.2450001,-1.995 -0.1575,-1.365 -0.2975,-2.8175 -0.175,-1.82 -0.1925,-1.89 z"
         style="font-style:normal;font-variant:normal;font-weight:bold;font-stretch:normal;font-size:17.5px;font-family:Purisa;-inkscape-font-specification:'Purisa Bold'"
         id="path4262" />
      <path
         d="m 21.913945,197.46745 q 0,-0.21 0.5775,-0.7 0.5775,-0.49 0.595,-0.63 0,-0.07 -0.105,-0.1925 -0.105,-0.1225 -0.56,-0.28 -0.4375,-0.1575 -1.155,-0.1575 -0.77,0 -1.3475,0.2275 -0.56,0.2275 -0.84,0.56 -0.28,0.3325 -0.4025,0.6125 -0.1225,0.28 -0.1225,0.49 0,0.35 0.0525,0.455 0.07,0.0875 0.3325,0.21 0.4025,0.1575 0.6475,0.1575 0.385,0 0.9625,-0.1925 0.5775,-0.1925 0.98,-0.3675 l 0.385,-0.1925 z m 3.15,1.12 q -0.035,0.4025 -0.315,0.7 -0.2625,0.28 -0.4375,0.28 -0.105,0 -0.21,-0.035 -0.0875,-0.035 -0.175,-0.1225 -0.07,-0.105 -0.14,-0.175 -0.0525,-0.0875 -0.105,-0.245 -0.035,-0.1575 -0.07,-0.245 -0.035,-0.105 -0.07,-0.2975 -0.035,-0.1925 -0.0525,-0.28 0,-0.0875 -0.035,-0.28 -0.035,-0.1925 -0.035,-0.245 -0.56,0.6475 -1.6625,1.26 -1.085,0.595 -1.855,0.595 -0.49,0 -1.1725,-0.1575 -0.6825,-0.1575 -0.9975,-0.385 -0.5425,-0.4025 -0.5425,-1.715 0,-0.77 0.4375,-1.33 0.4375,-0.56 1.575,-1.12 1.2775,-0.6475 2.3975,-0.6475 0.49,0 0.805,0.1225 0.3325,0.1225 0.5075,0.2975 0.1925,0.1575 0.21,0.1575 0.28,0.0525 0.49,0.2275 0,-1.155 -0.105,-1.925 -0.0875,-0.7875 -0.2625,-1.155 -0.175,-0.3675 -0.35,-0.5075 -0.175,-0.14 -0.42,-0.14 -0.84,0 -1.82,0.3325 -0.9625,0.3325 -1.75,0.6825 -0.77,0.3325 -1.12,0.3325 -0.4375,0 -0.4375,-0.4025 0,-0.245 0.105,-0.4375 0.105,-0.21 0.245,-0.35 0.1575,-0.14 0.4725,-0.28 0.3325,-0.1575 0.595,-0.245 0.28,-0.105 0.805,-0.28 0.525,-0.1925 0.91,-0.3325 1.05,-0.3675 1.8375,-0.3675 1.4175,0 2.1175,1.33 0.315,0.595 0.3675,1.085 0.07,0.49 0.105,2.8525 0.035,2.2225 0.1575,3.4475 z"
         style="font-style:normal;font-variant:normal;font-weight:bold;font-stretch:normal;font-size:17.5px;font-family:Purisa;-inkscape-font-specification:'Purisa Bold'"
         id="path4264" />
      <path
         d="m 30.583828,189.90745 q -0.56,0.035 -1.54,0.21 -0.9625,0.1575 -1.295,0.1575 -0.7525,0 -0.7525,-0.595 0,-0.4725 0.665,-0.7175 0.665,-0.245 1.575,-0.385 0.9275,-0.14 1.19,-0.28 0.14,-0.14 0.14,-0.7525 0,-0.63 -0.1575,-1.645 -0.1575,-1.015 -0.1575,-1.8375 0,-0.56 0.2975,-0.8225 0.2975,-0.28 0.6475,-0.28 0.385,0 0.5425,0.315 0.0875,0.2625 0.2975,2.2925 0.21,2.0125 0.2625,2.3275 0.14,-0.0175 0.9275,-0.14 0.805,-0.14 1.225,-0.14 0.595,0 0.84,0.1925 0.245,0.1925 0.245,0.42 0,0.3325 -0.455,0.56 -0.455,0.2275 -1.645,0.525 l -0.9975,0.1575 0.14,2.66 q 0.14,2.4675 0.49,4.62 0.35,2.1525 0.35,2.485 0,0.77 -0.805,0.77 -0.4725,0 -0.7,-0.175 -0.525,-0.4725 -0.525,-1.9775 0,-0.6125 -0.07,-1.2425 -0.07,-0.6475 -0.245,-1.995 -0.1575,-1.365 -0.2975,-2.8175 -0.175,-1.82 -0.1925,-1.89 z"
         style="font-style:normal;font-variant:normal;font-weight:bold;font-stretch:normal;font-size:17.5px;font-family:Purisa;-inkscape-font-specification:'Purisa Bold'"
         id="path4266" />
      <path
         d="m 39.415312,191.58745 q 1.47,-1.26 2.5025,-1.6625 1.05,-0.4025 2.625,-0.4025 2.4325,0 3.045,1.365 0.35,0.77 0.35,1.9075 0,1.8025 -0.875,3.675 -0.857499,1.8725 -2.1875,2.625 -1.295,0.7175 -2.7475,0.7175 -2.135,0 -3.254999,-1.26 -0.787501,-0.875 -1.0325,-1.4875 -0.227501,-0.63 -0.227501,-1.7325 0,-2.1875 1.8025,-3.745 z m 3.167501,6.7725 q 1.434999,0 2.642499,-1.82 1.225001,-1.8375 1.225001,-4.165 0,-0.245 -0.0525,-0.385 -0.035,-0.14 -0.0875,-0.1925 -0.0525,-0.07 -0.192501,-0.175 -0.629999,-0.455 -1.33,-0.455 -0.105,0 -0.297499,0.035 -0.175001,0.0175 -0.542501,0.07 -0.349999,0.035 -0.769999,0.07 -0.577501,0.0525 -0.945,0.2275 -0.350001,0.1575 -0.910001,0.63 -1.05,0.8925 -1.504999,1.645 -0.4375,0.735 -0.4375,1.61 0,1.2775 0.892499,2.1 0.8925,0.805 2.310001,0.805 z"
         style="font-style:normal;font-variant:normal;font-weight:bold;font-stretch:normal;font-size:17.5px;font-family:Purisa;-inkscape-font-specification:'Purisa Bold'"
         id="path4268" />
      <path
         d="m 56.865,190.93995 q 0.3325,0 0.5775,0.1575 0.245,0.14 0.315,0.28 0.0875,0.14 0.0875,0.245 0,0.35 -0.805,0.6475 -1.0675,0.4025 -2.3275,1.9775 -1.2425,1.575 -1.505,2.9575 -0.3325,1.7675 -0.56,2.345 -0.2275,0.595 -0.665,0.595 -0.175,0 -0.315,-0.0525 -0.1225,-0.035 -0.21,-0.1575 -0.0875,-0.1225 -0.14,-0.21 -0.0525,-0.0875 -0.105,-0.28 -0.035,-0.21 -0.0525,-0.2975 0,-0.105 -0.035,-0.3325 -0.0175,-0.245 -0.0175,-0.2975 -0.42,-4.095 -0.42,-6.8775 0,-0.5775 0.07,-0.8925 0.07,-0.3325 0.35,-0.5775 0.175,-0.1575 0.385,-0.1575 0.2275,0 0.385,0.1925 0.1575,0.175 0.1575,0.4725 0,0.6475 0.175,1.8375 0.1925,1.1725 0.35,1.8375 0.14,-0.1925 0.4025,-0.595 0.665,-1.085 1.855,-1.9425 1.19,-0.875 2.0475,-0.875 z"
         style="font-style:normal;font-variant:normal;font-weight:bold;font-stretch:normal;font-size:17.5px;font-family:Purisa;-inkscape-font-specification:'Purisa Bold'"
         id="path4270" />
    </g>
  </g>
</svg>
